<?xml version="1.0" encoding="UTF-8" standalone="no"?>
<!-- Created with Inkscape (http://www.inkscape.org/) -->

<svg
   width="82.61985mm"
   height="8.1354084mm"
   viewBox="0 0 82.61985 8.1354084"
   version="1.1"
   id="svg14793"
   inkscape:version="1.2.1 (9c6d41e4, 2022-07-14)"
   sodipodi:docname="wm_computer_science.svg"
   inkscape:export-filename="wm_computer_science.png"
   inkscape:export-xdpi="200"
   inkscape:export-ydpi="200"
   xmlns:inkscape="http://www.inkscape.org/namespaces/inkscape"
   xmlns:sodipodi="http://sodipodi.sourceforge.net/DTD/sodipodi-0.dtd"
   xmlns="http://www.w3.org/2000/svg"
   xmlns:svg="http://www.w3.org/2000/svg">
  <sodipodi:namedview
     id="namedview14795"
     pagecolor="#ffffff"
     bordercolor="#666666"
     borderopacity="1.0"
     inkscape:showpageshadow="2"
     inkscape:pageopacity="0.0"
     inkscape:pagecheckerboard="0"
     inkscape:deskcolor="#d1d1d1"
     inkscape:document-units="mm"
     showgrid="false"
     inkscape:zoom="0.32515671"
     inkscape:cx="119.94216"
     inkscape:cy="3.0754401"
     inkscape:window-width="1309"
     inkscape:window-height="456"
     inkscape:window-x="0"
     inkscape:window-y="0"
     inkscape:window-maximized="0"
     inkscape:current-layer="layer1" />
  <defs
     id="defs14790">
    <clipPath
       clipPathUnits="userSpaceOnUse"
       id="clipPath6319">
      <path
         d="M 0,828 H 648 V 0 H 0 Z"
         id="path6317" />
    </clipPath>
  </defs>
  <g
     inkscape:label="Layer 1"
     inkscape:groupmode="layer"
     id="layer1"
     transform="translate(-61.884991,-63.889929)">
    <g
       id="g6313"
       transform="matrix(0.35277777,0,0,-0.35277777,-58.528257,335.2625)">
      <g
         id="g6315"
         clip-path="url(#clipPath6319)">
        <g
           id="g6321"
           transform="translate(364.7346,746.2364)">
          <path
             d="M 0,0 H -0.744 L -7.57,18.478 -13.537,0 h -0.793 l -5.405,17.454 c -0.485,1.586 -0.834,2.641 -1.049,3.165 -0.215,0.523 -0.496,0.909 -0.843,1.157 -0.347,0.248 -0.923,0.388 -1.727,0.421 v 0.76 h 8.413 v -0.76 c -1.014,-0.066 -1.664,-0.212 -1.951,-0.438 -0.286,-0.226 -0.43,-0.543 -0.43,-0.95 0,-0.364 0.232,-1.295 0.695,-2.793 l 3.999,-13.058 5.852,17.999 h 0.925 L 0.727,4.958 4.149,16.859 c 0.451,1.608 0.677,2.66 0.677,3.156 0,1.455 -0.777,2.182 -2.33,2.182 v 0.76 h 6.115 v -0.76 C 7.708,22.131 7.035,21.798 6.595,21.197 6.154,20.596 5.597,19.156 4.926,16.875 Z"
             style="fill:#004e38;fill-opacity:1;fill-rule:nonzero;stroke:none"
             id="path6323" />
        </g>
        <g
           id="g6325"
           transform="translate(364.0269,746.2881)">
          <path
             d="m 0,0 h 0.669 l 4.914,16.838 c 0.671,2.275 1.235,3.735 1.678,4.338 0.44,0.6 1.115,0.942 2.006,1.017 v 0.661 H 3.255 v -0.657 c 1.547,-0.016 2.331,-0.767 2.331,-2.233 0,-0.498 -0.229,-1.565 -0.68,-3.171 L 1.441,4.739 -5.179,22.854 h -0.852 l -5.89,-18.12 -4.048,13.215 c -0.469,1.517 -0.697,2.435 -0.697,2.808 0,0.422 0.152,0.756 0.45,0.991 0.293,0.231 0.924,0.377 1.93,0.446 v 0.66 h -8.309 v -0.659 c 0.786,-0.037 1.36,-0.181 1.706,-0.429 0.353,-0.252 0.643,-0.649 0.86,-1.179 0.214,-0.522 0.568,-1.588 1.052,-3.17 L -13.584,0 h 0.717 l 6.002,18.585 z m 0.746,-0.104 h -0.818 l -0.013,0.034 -6.774,18.338 -5.932,-18.372 h -0.869 l -0.012,0.037 -5.404,17.454 c -0.483,1.578 -0.836,2.642 -1.048,3.16 -0.211,0.512 -0.488,0.894 -0.826,1.135 -0.336,0.24 -0.908,0.379 -1.699,0.412 l -0.049,0.002 v 0.861 h 8.516 v -0.86 l -0.048,-0.003 c -0.999,-0.065 -1.645,-0.209 -1.922,-0.427 -0.272,-0.215 -0.41,-0.521 -0.41,-0.91 0,-0.357 0.233,-1.292 0.692,-2.778 l 3.952,-12.9 5.812,17.878 h 0.999 l 0.012,-0.034 6.524,-17.85 3.378,11.748 c 0.448,1.597 0.675,2.654 0.675,3.143 0,1.433 -0.745,2.13 -2.279,2.13 H 3.152 v 0.863 h 6.219 v -0.86 L 9.323,22.094 C 8.439,22.029 7.773,21.7 7.344,21.115 6.908,20.521 6.35,19.072 5.683,16.809 Z"
             style="fill:#004e38;fill-opacity:1;fill-rule:nonzero;stroke:none"
             id="path6327" />
        </g>
        <g
           id="g6329"
           transform="translate(409.9287,750.1991)">
          <path
             d="m 0,0 8.357,18.982 h 7.038 v -0.779 h -0.846 c -1.128,0 -1.866,-0.093 -2.216,-0.279 -0.35,-0.186 -0.584,-0.533 -0.702,-1.04 -0.118,-0.508 -0.178,-1.715 -0.178,-3.62 V 2.013 c 0,-1.805 0.045,-2.986 0.136,-3.544 0.09,-0.558 0.318,-0.973 0.685,-1.243 0.366,-0.271 1.068,-0.406 2.106,-0.406 h 1.015 V -3.959 H 4.432 v 0.779 h 0.813 c 0.969,0 1.643,0.123 2.021,0.372 0.378,0.248 0.62,0.634 0.728,1.159 0.106,0.524 0.16,1.745 0.16,3.662 v 14.6 L -0.93,-3.959 h -0.796 l -9.152,20.572 V 3.181 c 0,-1.839 0.056,-3.091 0.169,-3.756 0.113,-0.666 0.462,-1.249 1.049,-1.751 0.586,-0.502 1.409,-0.787 2.47,-0.854 v -0.779 h -8.205 v 0.779 c 0.981,0.056 1.779,0.324 2.394,0.803 0.614,0.479 0.989,1.069 1.125,1.768 0.135,0.699 0.203,1.996 0.203,3.891 v 9.982 c 0,1.827 -0.054,3.005 -0.161,3.535 -0.107,0.53 -0.333,0.897 -0.677,1.1 -0.344,0.203 -1.097,0.304 -2.258,0.304 h -0.626 v 0.779 h 6.987 z"
             style="fill:#004e38;fill-opacity:1;fill-rule:nonzero;stroke:none"
             id="path6331" />
        </g>
        <g
           id="g6333"
           transform="translate(414.413,746.2922)">
          <path
             d="M 0,0 H 10.859 V 0.675 H 9.896 C 8.837,0.675 8.138,0.811 7.759,1.091 7.382,1.368 7.145,1.798 7.053,2.368 6.963,2.925 6.917,4.12 6.917,5.92 v 11.25 c 0,1.902 0.061,3.124 0.179,3.633 0.122,0.52 0.367,0.882 0.729,1.074 0.36,0.192 1.093,0.285 2.24,0.285 h 0.794 v 0.675 H 3.907 L -4.484,3.779 -12.926,22.837 h -6.902 v -0.675 h 0.575 c 1.182,0 1.929,-0.102 2.284,-0.311 0.356,-0.21 0.592,-0.592 0.702,-1.135 0.107,-0.532 0.161,-1.725 0.161,-3.546 V 7.189 c 0,-1.89 -0.068,-3.203 -0.204,-3.901 -0.137,-0.709 -0.522,-1.314 -1.144,-1.799 -0.61,-0.476 -1.408,-0.749 -2.374,-0.811 V 0 h 8.102 v 0.678 c -1.044,0.074 -1.869,0.364 -2.452,0.863 -0.593,0.508 -0.952,1.107 -1.066,1.782 -0.113,0.663 -0.17,1.93 -0.17,3.764 V 20.764 L -6.176,0 h 0.728 l 9.17,20.766 V 5.92 C 3.722,4.01 3.668,2.774 3.56,2.247 3.45,1.711 3.198,1.31 2.81,1.055 2.426,0.803 1.736,0.675 0.76,0.675 H 0 Z M 10.963,-0.104 H -0.104 V 0.778 H 0.76 c 0.956,0 1.626,0.123 1.993,0.364 0.364,0.239 0.602,0.618 0.706,1.126 0.106,0.52 0.159,1.749 0.159,3.652 V 20.275 L -5.381,-0.104 h -0.862 l -0.014,0.031 -9.054,20.349 V 7.087 c 0,-1.828 0.057,-3.089 0.169,-3.747 0.11,-0.65 0.457,-1.229 1.031,-1.72 0.575,-0.492 1.396,-0.775 2.44,-0.842 l 0.048,-0.003 v -0.879 h -8.308 v 0.879 l 0.049,0.003 c 0.965,0.055 1.761,0.322 2.365,0.793 0.601,0.469 0.973,1.053 1.106,1.737 0.134,0.692 0.202,1.998 0.202,3.881 v 9.981 c 0,1.814 -0.054,3 -0.16,3.526 -0.104,0.513 -0.323,0.871 -0.652,1.065 -0.335,0.198 -1.086,0.298 -2.232,0.298 h -0.678 v 0.881 h 7.072 L -4.484,4.035 3.839,22.94 h 7.124 V 22.059 H 10.065 C 8.951,22.059 8.213,21.967 7.873,21.786 7.539,21.608 7.312,21.269 7.197,20.779 7.08,20.278 7.021,19.064 7.021,17.17 V 5.92 C 7.021,4.126 7.066,2.936 7.156,2.384 7.243,1.842 7.467,1.435 7.82,1.174 8.176,0.911 8.874,0.778 9.896,0.778 h 1.067 z"
             style="fill:#004e38;fill-opacity:1;fill-rule:nonzero;stroke:none"
             id="path6335" />
        </g>
        <g
           id="g6337"
           transform="translate(376.1133,758.6197)">
          <path
             d="m 0,0 c -0.401,0.863 -0.601,1.67 -0.601,2.417 0,0.846 0.249,1.632 0.748,2.358 C 0.646,5.5 1.28,6.086 2.05,6.531 2.82,6.976 3.62,7.199 4.448,7.199 5.374,7.199 6.146,6.943 6.765,6.431 7.384,5.919 7.693,5.307 7.693,4.595 7.693,4.06 7.544,3.566 7.246,3.112 6.947,2.658 6.633,2.431 6.304,2.431 c -0.16,0 -0.24,0.084 -0.24,0.254 0,0.061 0.044,0.2 0.133,0.414 0.142,0.347 0.214,0.699 0.214,1.055 0,0.534 -0.218,0.968 -0.655,1.302 C 5.32,5.79 4.795,5.957 4.18,5.957 3.192,5.957 2.268,5.549 1.409,4.735 0.55,3.92 0.12,2.987 0.12,1.937 0.12,1.464 0.182,1.066 0.307,0.741 0.432,0.416 0.545,0.205 0.648,0.107 0.75,0.008 0.895,-0.04 1.082,-0.04 c 1.229,0 1.843,-0.356 1.843,-1.069 0,-0.178 -0.065,-0.347 -0.194,-0.507 -0.129,-0.16 -0.318,-0.241 -0.567,-0.241 -0.276,0 -0.628,0.183 -1.055,0.548 -0.455,0.392 -0.9,0.588 -1.336,0.588 -0.561,0 -1.093,-0.279 -1.596,-0.835 -0.503,-0.556 -0.755,-1.218 -0.755,-1.983 0,-1.488 0.739,-2.892 2.217,-4.214 1.478,-1.322 3.317,-1.984 5.516,-1.984 2.084,0 3.867,0.519 5.35,1.556 1.482,1.037 2.223,2.278 2.223,3.72 0,0.962 -0.365,1.796 -1.095,2.504 -0.73,0.708 -1.718,1.062 -2.965,1.062 -1.007,0 -1.903,-0.276 -2.691,-0.828 -0.788,-0.552 -1.182,-1.242 -1.182,-2.07 0,-0.499 0.142,-0.908 0.427,-1.229 0.285,-0.32 0.579,-0.481 0.882,-0.481 0.347,0 0.521,0.187 0.521,0.561 l -0.014,0.161 c -0.009,0.115 -0.013,0.195 -0.013,0.24 0,0.392 0.107,0.714 0.32,0.968 0.214,0.254 0.486,0.381 0.815,0.381 0.312,0 0.583,-0.109 0.815,-0.327 0.231,-0.219 0.347,-0.523 0.347,-0.915 0,-0.561 -0.193,-1.029 -0.581,-1.403 -0.387,-0.374 -0.884,-0.561 -1.489,-0.561 -0.721,0 -1.342,0.256 -1.863,0.768 -0.521,0.512 -0.782,1.142 -0.782,1.89 0,1.096 0.459,2.092 1.376,2.992 0.917,0.899 2.582,1.349 4.995,1.349 2.164,0 3.735,0.298 4.715,0.895 0.979,0.588 1.469,1.482 1.469,2.684 0,0.713 -0.218,1.298 -0.654,1.757 -0.437,0.458 -0.989,0.688 -1.656,0.688 -0.33,0 -0.577,-0.047 -0.742,-0.141 -0.164,-0.093 -0.247,-0.238 -0.247,-0.434 0,-0.125 0.08,-0.302 0.241,-0.534 0.204,-0.294 0.307,-0.579 0.307,-0.855 0,-0.329 -0.127,-0.619 -0.381,-0.868 -0.254,-0.249 -0.567,-0.374 -0.941,-0.374 -0.446,0 -0.784,0.142 -1.015,0.428 -0.232,0.285 -0.348,0.618 -0.348,1.001 0,0.606 0.296,1.149 0.888,1.63 0.593,0.481 1.347,0.721 2.264,0.721 0.944,0 1.73,-0.346 2.358,-1.035 0.627,-0.69 0.941,-1.521 0.941,-2.491 0,-0.917 -0.269,-1.755 -0.808,-2.511 -0.538,-0.757 -1.22,-1.291 -2.043,-1.603 -0.824,-0.312 -1.979,-0.494 -3.466,-0.547 1.424,-1.007 2.137,-2.298 2.137,-3.874 0,-1.184 -0.436,-2.328 -1.309,-3.432 -0.873,-1.104 -1.93,-1.923 -3.172,-2.458 -1.242,-0.534 -2.758,-0.801 -4.548,-0.801 -1.451,0 -2.627,0.158 -3.526,0.474 -0.899,0.316 -1.756,0.777 -2.571,1.382 -0.815,0.606 -1.456,1.347 -1.923,2.224 -0.468,0.877 -0.701,1.818 -0.701,2.825 0,1.229 0.351,2.262 1.055,3.099 C -2.422,-0.713 -1.38,-0.196 0,0"
             style="fill:#004e38;fill-opacity:1;fill-rule:nonzero;stroke:none"
             id="path6339" />
        </g>
        <g
           id="g6341"
           transform="translate(380.5609,765.8015)">
          <path
             d="m 0,0 c -0.821,0 -1.625,-0.224 -2.389,-0.666 -0.764,-0.442 -1.403,-1.031 -1.897,-1.751 -0.495,-0.719 -0.745,-1.509 -0.745,-2.347 0,-0.743 0.201,-1.553 0.599,-2.41 l 0.01,-0.022 -0.023,-0.003 c -1.369,-0.194 -2.417,-0.713 -3.115,-1.543 -0.697,-0.83 -1.051,-1.869 -1.051,-3.088 0,-0.999 0.236,-1.946 0.699,-2.816 0.464,-0.871 1.11,-1.617 1.919,-2.218 0.81,-0.603 1.673,-1.067 2.566,-1.38 0.894,-0.314 2.078,-0.474 3.521,-0.474 1.779,0 3.306,0.27 4.54,0.801 1.234,0.53 2.298,1.355 3.166,2.452 0.866,1.095 1.305,2.246 1.305,3.422 0,1.562 -0.717,2.86 -2.13,3.859 l -0.042,0.029 0.052,0.002 c 1.479,0.053 2.644,0.237 3.46,0.547 0.816,0.309 1.501,0.846 2.036,1.596 0.534,0.75 0.804,1.592 0.804,2.501 0,0.962 -0.315,1.796 -0.937,2.48 C 11.726,-0.346 10.938,0 10.004,0 9.095,0 8.337,-0.241 7.751,-0.717 7.166,-1.193 6.869,-1.736 6.869,-2.334 c 0,-0.377 0.115,-0.71 0.343,-0.99 0.227,-0.28 0.564,-0.421 1.002,-0.421 0.368,0 0.68,0.124 0.93,0.369 0.249,0.244 0.375,0.532 0.375,0.855 0,0.271 -0.102,0.556 -0.304,0.846 -0.164,0.236 -0.244,0.414 -0.244,0.544 0,0.201 0.086,0.352 0.256,0.449 0.167,0.094 0.419,0.142 0.75,0.142 0.67,0 1.231,-0.233 1.669,-0.693 0.437,-0.461 0.659,-1.056 0.659,-1.768 0,-1.203 -0.497,-2.111 -1.478,-2.7 -0.978,-0.595 -2.567,-0.897 -4.723,-0.897 -2.398,0 -4.074,-0.452 -4.983,-1.344 -0.91,-0.892 -1.371,-1.895 -1.371,-2.98 0,-0.739 0.261,-1.371 0.776,-1.877 0.515,-0.506 1.138,-0.763 1.851,-0.763 0.598,0 1.095,0.187 1.478,0.556 0.382,0.369 0.575,0.837 0.575,1.39 0,0.384 -0.115,0.688 -0.341,0.902 -0.228,0.214 -0.498,0.323 -0.803,0.323 -0.323,0 -0.593,-0.126 -0.802,-0.375 -0.21,-0.249 -0.316,-0.571 -0.316,-0.957 0,-0.044 0.004,-0.125 0.013,-0.239 l 0.013,-0.16 c 0,-0.385 -0.181,-0.58 -0.538,-0.58 -0.306,0 -0.607,0.164 -0.894,0.487 -0.287,0.322 -0.432,0.739 -0.432,1.24 0,0.83 0.4,1.531 1.189,2.084 0.788,0.552 1.697,0.832 2.702,0.832 1.245,0 2.246,-0.359 2.977,-1.067 0.73,-0.708 1.1,-1.555 1.1,-2.517 0,-1.442 -0.751,-2.698 -2.231,-3.734 -1.479,-1.034 -3.282,-1.559 -5.359,-1.559 -2.194,0 -4.053,0.669 -5.528,1.988 -1.475,1.32 -2.223,2.742 -2.223,4.227 0,0.766 0.256,1.437 0.76,1.995 0.504,0.558 1.045,0.84 1.608,0.84 0.439,0 0.892,-0.199 1.347,-0.592 0.422,-0.36 0.773,-0.543 1.044,-0.543 0.243,0 0.429,0.079 0.554,0.234 0.126,0.157 0.19,0.324 0.19,0.497 0,0.697 -0.614,1.051 -1.826,1.051 -0.191,0 -0.341,0.051 -0.446,0.152 -0.104,0.099 -0.22,0.315 -0.344,0.64 -0.125,0.325 -0.189,0.729 -0.189,1.202 0,1.051 0.436,1.997 1.295,2.811 0.858,0.814 1.795,1.226 2.783,1.226 0.615,0 1.149,-0.169 1.586,-0.504 0.439,-0.336 0.662,-0.779 0.662,-1.316 0,-0.356 -0.073,-0.713 -0.215,-1.062 -0.11,-0.262 -0.133,-0.366 -0.133,-0.407 0,-0.159 0.073,-0.237 0.224,-0.237 0.321,0 0.633,0.227 0.927,0.674 0.295,0.449 0.444,0.944 0.444,1.473 0,0.703 -0.31,1.316 -0.922,1.823 C 1.693,-0.257 0.917,0 0,0 m 0.094,-18.752 c -1.447,0 -2.635,0.16 -3.532,0.475 -0.897,0.315 -1.763,0.781 -2.576,1.385 -0.813,0.604 -1.462,1.354 -1.928,2.229 -0.467,0.875 -0.703,1.828 -0.703,2.833 0,1.228 0.356,2.274 1.059,3.11 0.699,0.832 1.746,1.354 3.113,1.552 -0.393,0.854 -0.593,1.663 -0.593,2.404 0,0.845 0.253,1.641 0.751,2.367 0.498,0.724 1.14,1.316 1.909,1.761 0.769,0.445 1.578,0.67 2.406,0.67 0.926,0 1.709,-0.259 2.328,-0.771 0.62,-0.514 0.935,-1.136 0.935,-1.85 0,-0.535 -0.152,-1.037 -0.45,-1.492 -0.301,-0.457 -0.623,-0.689 -0.956,-0.689 -0.171,0 -0.258,0.091 -0.258,0.271 0,0.065 0.044,0.203 0.135,0.421 0.141,0.344 0.212,0.696 0.212,1.048 0,0.526 -0.218,0.959 -0.648,1.288 -0.431,0.331 -0.958,0.498 -1.565,0.498 -0.979,0 -1.908,-0.41 -2.76,-1.218 -0.851,-0.807 -1.283,-1.744 -1.283,-2.785 0,-0.468 0.062,-0.868 0.186,-1.189 0.123,-0.321 0.236,-0.532 0.336,-0.628 0.098,-0.095 0.24,-0.143 0.422,-0.143 1.235,0 1.861,-0.365 1.861,-1.085 0,-0.181 -0.067,-0.356 -0.198,-0.519 -0.132,-0.163 -0.327,-0.247 -0.581,-0.247 -0.279,0 -0.638,0.186 -1.066,0.552 -0.449,0.388 -0.895,0.584 -1.325,0.584 -0.553,0 -1.085,-0.279 -1.583,-0.829 -0.498,-0.551 -0.75,-1.215 -0.75,-1.972 0,-1.475 0.744,-2.888 2.211,-4.201 1.468,-1.313 3.32,-1.979 5.505,-1.979 2.07,0 3.866,0.522 5.339,1.553 1.471,1.028 2.217,2.275 2.217,3.705 0,0.952 -0.367,1.79 -1.09,2.492 -0.724,0.702 -1.717,1.057 -2.953,1.057 -0.998,0 -1.9,-0.277 -2.682,-0.825 -0.779,-0.546 -1.174,-1.238 -1.174,-2.056 0,-0.492 0.142,-0.902 0.423,-1.217 0.28,-0.315 0.572,-0.475 0.868,-0.475 0.339,0 0.504,0.178 0.504,0.544 l -0.013,0.158 c -0.009,0.116 -0.014,0.197 -0.014,0.242 0,0.394 0.109,0.724 0.325,0.98 0.216,0.256 0.494,0.386 0.828,0.386 0.314,0 0.592,-0.111 0.826,-0.331 0.234,-0.222 0.353,-0.534 0.353,-0.928 0,-0.563 -0.197,-1.039 -0.586,-1.415 -0.389,-0.375 -0.894,-0.566 -1.502,-0.566 -0.723,0 -1.354,0.261 -1.875,0.773 -0.522,0.513 -0.786,1.153 -0.786,1.902 0,1.095 0.464,2.106 1.381,3.005 0.915,0.898 2.6,1.354 5.007,1.354 2.15,0 3.733,0.3 4.705,0.892 0.97,0.581 1.461,1.48 1.461,2.67 0,0.703 -0.218,1.29 -0.649,1.744 -0.431,0.453 -0.984,0.683 -1.644,0.683 -0.325,0 -0.571,-0.047 -0.733,-0.138 -0.158,-0.09 -0.238,-0.231 -0.238,-0.419 0,-0.121 0.08,-0.297 0.237,-0.525 0.206,-0.295 0.311,-0.586 0.311,-0.865 0,-0.333 -0.13,-0.629 -0.386,-0.88 C 8.912,-3.652 8.591,-3.78 8.214,-3.78 c -0.449,0 -0.795,0.146 -1.028,0.434 -0.233,0.286 -0.352,0.627 -0.352,1.012 0,0.609 0.301,1.161 0.895,1.643 0.592,0.481 1.358,0.725 2.275,0.725 0.944,0 1.741,-0.35 2.37,-1.04 0.628,-0.69 0.946,-1.532 0.946,-2.503 0,-0.917 -0.273,-1.765 -0.811,-2.521 -0.538,-0.756 -1.229,-1.297 -2.052,-1.609 -0.81,-0.307 -1.961,-0.491 -3.42,-0.546 1.395,-1.002 2.102,-2.3 2.102,-3.858 0,-1.184 -0.441,-2.342 -1.312,-3.444 -0.871,-1.101 -1.941,-1.93 -3.179,-2.462 -1.238,-0.533 -2.771,-0.803 -4.554,-0.803"
             style="fill:#004e38;fill-opacity:1;fill-rule:nonzero;stroke:none"
             id="path6343" />
        </g>
        <g
           id="g6345"
           transform="translate(440.897,753.2401)">
          <path
             d="m 0,0 c -0.603,-0.275 -1.297,-0.413 -2.084,-0.413 -0.716,0 -1.378,0.118 -1.985,0.354 -0.607,0.236 -1.133,0.57 -1.579,1.002 -0.445,0.433 -0.795,0.95 -1.048,1.553 -0.254,0.603 -0.38,1.267 -0.38,1.992 0,0.743 0.129,1.415 0.386,2.018 0.258,0.603 0.614,1.116 1.068,1.54 0.454,0.424 0.988,0.749 1.599,0.976 0.611,0.227 1.271,0.341 1.979,0.341 0.655,0 1.299,-0.116 1.933,-0.347 C 0.522,8.784 1.035,8.445 1.428,8 l -1.52,-1.52 c -0.209,0.288 -0.485,0.502 -0.825,0.642 -0.341,0.14 -0.69,0.21 -1.049,0.21 -0.393,0 -0.753,-0.072 -1.081,-0.217 C -3.374,6.971 -3.656,6.772 -3.892,6.519 -4.128,6.266 -4.311,5.967 -4.442,5.622 -4.573,5.276 -4.639,4.899 -4.639,4.488 c 0,-0.419 0.066,-0.804 0.197,-1.153 0.131,-0.35 0.312,-0.649 0.544,-0.898 0.231,-0.249 0.509,-0.443 0.832,-0.583 0.323,-0.14 0.677,-0.209 1.061,-0.209 0.445,0 0.834,0.087 1.166,0.262 0.332,0.174 0.599,0.401 0.8,0.681 L 1.52,1.12 C 1.109,0.649 0.603,0.275 0,0"
             style="fill:#004e38;fill-opacity:1;fill-rule:nonzero;stroke:none"
             id="path6347" />
        </g>
        <g
           id="g6349"
           transform="translate(451.5376,757.7544)">
          <path
             d="M 0,0 C 0,0.402 -0.066,0.777 -0.197,1.127 -0.328,1.476 -0.509,1.776 -0.741,2.025 -0.972,2.274 -1.251,2.47 -1.579,2.614 -1.907,2.758 -2.267,2.83 -2.66,2.83 -3.053,2.83 -3.412,2.758 -3.735,2.614 -4.058,2.47 -4.337,2.274 -4.574,2.025 -4.809,1.776 -4.991,1.476 -5.117,1.127 -5.244,0.777 -5.307,0.402 -5.307,0 c 0,-0.419 0.065,-0.806 0.196,-1.16 0.131,-0.354 0.313,-0.657 0.544,-0.91 0.232,-0.254 0.509,-0.453 0.832,-0.597 0.323,-0.144 0.682,-0.216 1.075,-0.216 0.393,0 0.751,0.072 1.074,0.216 0.323,0.144 0.603,0.343 0.839,0.597 0.236,0.253 0.419,0.556 0.55,0.91 C -0.066,-0.806 0,-0.419 0,0 m 2.398,0 c 0,-0.734 -0.127,-1.404 -0.38,-2.011 -0.254,-0.608 -0.605,-1.127 -1.055,-1.56 -0.45,-0.432 -0.985,-0.767 -1.605,-1.002 -0.621,-0.236 -1.293,-0.354 -2.018,-0.354 -0.725,0 -1.396,0.118 -2.012,0.354 -0.615,0.235 -1.149,0.57 -1.598,1.002 -0.45,0.433 -0.802,0.952 -1.055,1.56 -0.254,0.607 -0.38,1.277 -0.38,2.011 0,0.742 0.126,1.413 0.38,2.011 0.253,0.599 0.605,1.108 1.055,1.527 0.449,0.419 0.983,0.743 1.598,0.97 0.616,0.227 1.287,0.341 2.012,0.341 0.725,0 1.397,-0.114 2.018,-0.341 C -0.022,4.281 0.513,3.957 0.963,3.538 1.413,3.119 1.764,2.61 2.018,2.011 2.271,1.413 2.398,0.742 2.398,0"
             style="fill:#004e38;fill-opacity:1;fill-rule:nonzero;stroke:none"
             id="path6351" />
        </g>
        <g
           id="g6353"
           transform="translate(463.9601,753.0762)">
          <path
             d="M 0,0 0.053,6.565 H 0.013 L -2.398,0 H -3.97 L -6.316,6.565 H -6.355 L -6.303,0 h -2.11 v 9.278 h 3.188 l 2.113,-5.95 h 0.052 l 2.021,5.95 h 3.24 L 2.201,0 Z"
             style="fill:#004e38;fill-opacity:1;fill-rule:nonzero;stroke:none"
             id="path6355" />
        </g>
        <g
           id="g6357"
           transform="translate(472.9885,759.4841)">
          <path
             d="m 0,0 c 0,0.218 -0.044,0.397 -0.131,0.537 -0.087,0.14 -0.205,0.249 -0.354,0.328 -0.148,0.078 -0.316,0.131 -0.504,0.157 -0.188,0.026 -0.383,0.039 -0.583,0.039 h -0.983 v -2.188 h 0.943 c 0.21,0 0.411,0.017 0.603,0.052 0.192,0.035 0.365,0.097 0.518,0.184 0.153,0.087 0.273,0.203 0.36,0.347 C -0.044,-0.4 0,-0.219 0,0 M 2.241,0.013 C 2.241,-0.529 2.14,-0.985 1.939,-1.356 1.738,-1.728 1.468,-2.027 1.127,-2.254 0.786,-2.481 0.393,-2.647 -0.052,-2.752 -0.498,-2.857 -0.961,-2.909 -1.441,-2.909 H -2.555 V -6.408 H -4.796 V 2.87 h 3.407 c 0.507,0 0.981,-0.051 1.422,-0.151 C 0.474,2.618 0.858,2.457 1.186,2.234 1.514,2.011 1.771,1.719 1.959,1.356 2.147,0.994 2.241,0.546 2.241,0.013"
             style="fill:#004e38;fill-opacity:1;fill-rule:nonzero;stroke:none"
             id="path6359" />
        </g>
        <g
           id="g6361"
           transform="translate(484.5532,755.0485)">
          <path
             d="m 0,0 c -0.188,-0.459 -0.457,-0.852 -0.806,-1.18 -0.349,-0.327 -0.771,-0.583 -1.264,-0.766 -0.494,-0.184 -1.042,-0.275 -1.645,-0.275 -0.611,0 -1.162,0.091 -1.651,0.275 -0.489,0.183 -0.904,0.439 -1.245,0.766 -0.341,0.328 -0.603,0.721 -0.786,1.18 -0.183,0.458 -0.275,0.967 -0.275,1.526 v 5.779 h 2.227 V 1.71 c 0,-0.254 0.033,-0.494 0.099,-0.721 0.065,-0.227 0.166,-0.43 0.301,-0.609 0.135,-0.179 0.315,-0.321 0.537,-0.426 0.223,-0.105 0.492,-0.157 0.806,-0.157 0.315,0 0.583,0.052 0.806,0.157 0.223,0.105 0.404,0.247 0.544,0.426 0.14,0.179 0.24,0.382 0.301,0.609 0.061,0.227 0.092,0.467 0.092,0.721 V 7.305 H 0.282 V 1.526 C 0.282,0.967 0.188,0.458 0,0"
             style="fill:#004e38;fill-opacity:1;fill-rule:nonzero;stroke:none"
             id="path6363" />
        </g>
        <g
           id="g6365"
           transform="translate(491.3999,760.4407)">
          <path
             d="M 0,0 V -7.365 H -2.241 V 0 h -2.62 V 1.913 H 2.621 V 0 Z"
             style="fill:#004e38;fill-opacity:1;fill-rule:nonzero;stroke:none"
             id="path6367" />
        </g>
        <g
           id="g6369"
           transform="translate(495.6983,753.0762)">
          <path
             d="M 0,0 V 9.278 H 6.237 V 7.391 H 2.162 V 5.635 H 6.015 V 3.839 H 2.162 V 1.913 H 6.473 V 0 Z"
             style="fill:#004e38;fill-opacity:1;fill-rule:nonzero;stroke:none"
             id="path6371" />
        </g>
        <g
           id="g6373"
           transform="translate(509.1822,759.5104)">
          <path
             d="m 0,0 c 0,0.218 -0.046,0.395 -0.138,0.531 -0.093,0.135 -0.211,0.24 -0.356,0.314 -0.145,0.074 -0.307,0.125 -0.487,0.151 -0.18,0.026 -0.354,0.039 -0.52,0.039 h -1.198 v -2.162 h 1.066 c 0.184,0 0.373,0.015 0.566,0.046 0.193,0.03 0.369,0.085 0.527,0.164 0.158,0.078 0.287,0.192 0.388,0.34 C -0.051,-0.428 0,-0.236 0,0 m 0.092,-6.434 -2.015,3.682 h -0.763 v -3.682 h -2.189 v 9.277 h 3.538 c 0.446,0 0.88,-0.045 1.304,-0.137 C 0.391,2.614 0.771,2.459 1.107,2.241 1.443,2.022 1.712,1.734 1.913,1.376 2.114,1.018 2.215,0.572 2.215,0.039 2.215,-0.59 2.044,-1.118 1.703,-1.546 1.363,-1.974 0.891,-2.28 0.288,-2.464 l 2.425,-3.97 z"
             style="fill:#004e38;fill-opacity:1;fill-rule:nonzero;stroke:none"
             id="path6375" />
        </g>
        <g
           id="g6377"
           transform="translate(522.4825,759.9428)">
          <path
             d="M 0,0 C -0.192,0.245 -0.443,0.439 -0.754,0.583 -1.064,0.727 -1.363,0.799 -1.651,0.799 -1.8,0.799 -1.951,0.786 -2.103,0.76 -2.256,0.734 -2.394,0.683 -2.516,0.609 -2.638,0.535 -2.741,0.439 -2.824,0.321 -2.907,0.203 -2.949,0.052 -2.949,-0.131 c 0,-0.157 0.033,-0.288 0.099,-0.393 0.065,-0.105 0.161,-0.197 0.288,-0.275 0.127,-0.079 0.277,-0.151 0.452,-0.217 0.175,-0.065 0.371,-0.133 0.59,-0.203 0.314,-0.104 0.642,-0.221 0.983,-0.347 0.34,-0.127 0.65,-0.295 0.93,-0.504 0.28,-0.21 0.511,-0.47 0.694,-0.78 0.184,-0.31 0.276,-0.697 0.276,-1.16 0,-0.533 -0.098,-0.994 -0.295,-1.382 -0.197,-0.389 -0.461,-0.71 -0.793,-0.964 -0.332,-0.253 -0.712,-0.441 -1.14,-0.563 -0.428,-0.122 -0.869,-0.183 -1.324,-0.183 -0.663,0 -1.306,0.115 -1.926,0.347 -0.62,0.231 -1.135,0.561 -1.546,0.989 l 1.468,1.494 c 0.227,-0.28 0.526,-0.513 0.897,-0.701 0.372,-0.188 0.741,-0.282 1.107,-0.282 0.166,0 0.328,0.018 0.485,0.053 0.158,0.034 0.295,0.091 0.413,0.17 0.118,0.079 0.212,0.183 0.282,0.314 0.07,0.132 0.105,0.289 0.105,0.472 0,0.175 -0.044,0.323 -0.131,0.446 -0.088,0.122 -0.212,0.233 -0.374,0.334 -0.162,0.1 -0.362,0.192 -0.602,0.275 -0.241,0.083 -0.514,0.173 -0.819,0.269 -0.298,0.096 -0.588,0.209 -0.872,0.34 -0.284,0.132 -0.537,0.3 -0.76,0.505 -0.223,0.205 -0.402,0.454 -0.537,0.747 -0.136,0.292 -0.203,0.649 -0.203,1.068 0,0.515 0.104,0.956 0.314,1.323 0.21,0.367 0.485,0.669 0.826,0.905 0.34,0.235 0.725,0.408 1.153,0.517 0.428,0.109 0.86,0.164 1.297,0.164 0.524,0 1.059,-0.096 1.605,-0.288 C 0.539,2.166 1.017,1.883 1.428,1.507 Z"
             style="fill:#004e38;fill-opacity:1;fill-rule:nonzero;stroke:none"
             id="path6379" />
        </g>
        <g
           id="g6381"
           transform="translate(532.3628,753.2401)">
          <path
             d="m 0,0 c -0.603,-0.275 -1.297,-0.413 -2.084,-0.413 -0.716,0 -1.378,0.118 -1.985,0.354 -0.607,0.236 -1.133,0.57 -1.579,1.002 -0.445,0.433 -0.795,0.95 -1.048,1.553 -0.254,0.603 -0.38,1.267 -0.38,1.992 0,0.743 0.129,1.415 0.386,2.018 0.258,0.603 0.614,1.116 1.068,1.54 0.454,0.424 0.987,0.749 1.599,0.976 0.611,0.227 1.271,0.341 1.979,0.341 0.655,0 1.299,-0.116 1.933,-0.347 C 0.522,8.784 1.035,8.445 1.428,8 l -1.52,-1.52 c -0.209,0.288 -0.485,0.502 -0.825,0.642 -0.341,0.14 -0.69,0.21 -1.049,0.21 -0.393,0 -0.753,-0.072 -1.081,-0.217 C -3.374,6.971 -3.656,6.772 -3.892,6.519 -4.128,6.266 -4.311,5.967 -4.442,5.622 -4.573,5.276 -4.639,4.899 -4.639,4.488 c 0,-0.419 0.066,-0.804 0.197,-1.153 0.131,-0.35 0.312,-0.649 0.544,-0.898 0.231,-0.249 0.508,-0.443 0.832,-0.583 0.323,-0.14 0.677,-0.209 1.061,-0.209 0.445,0 0.834,0.087 1.166,0.262 0.332,0.174 0.599,0.401 0.8,0.681 L 1.52,1.12 C 1.109,0.649 0.603,0.275 0,0"
             style="fill:#004e38;fill-opacity:1;fill-rule:nonzero;stroke:none"
             id="path6383" />
        </g>
        <path
           d="m 535.757,762.354 h 2.254 v -9.278 h -2.254 z"
           style="fill:#004e38;fill-opacity:1;fill-rule:nonzero;stroke:none"
           id="path6385" />
        <g
           id="g6387"
           transform="translate(540.1861,753.0762)">
          <path
             d="M 0,0 V 9.278 H 6.237 V 7.391 H 2.162 V 5.635 H 6.015 V 3.839 H 2.162 V 1.913 H 6.473 V 0 Z"
             style="fill:#004e38;fill-opacity:1;fill-rule:nonzero;stroke:none"
             id="path6389" />
        </g>
        <g
           id="g6391"
           transform="translate(554.561,753.0762)">
          <path
             d="M 0,0 -3.735,6.067 H -3.774 L -3.722,0 h -2.175 v 9.278 h 2.555 L 0.38,3.224 H 0.419 L 0.367,9.278 H 2.542 V 0 Z"
             style="fill:#004e38;fill-opacity:1;fill-rule:nonzero;stroke:none"
             id="path6393" />
        </g>
        <g
           id="g6395"
           transform="translate(565.922,753.2401)">
          <path
             d="m 0,0 c -0.603,-0.275 -1.297,-0.413 -2.083,-0.413 -0.717,0 -1.379,0.118 -1.986,0.354 -0.607,0.236 -1.133,0.57 -1.579,1.002 -0.445,0.433 -0.795,0.95 -1.048,1.553 -0.254,0.603 -0.38,1.267 -0.38,1.992 0,0.743 0.129,1.415 0.386,2.018 0.258,0.603 0.614,1.116 1.068,1.54 0.454,0.424 0.988,0.749 1.599,0.976 0.611,0.227 1.271,0.341 1.979,0.341 0.655,0 1.299,-0.116 1.933,-0.347 C 0.522,8.784 1.035,8.445 1.428,8 l -1.52,-1.52 c -0.209,0.288 -0.485,0.502 -0.825,0.642 -0.341,0.14 -0.69,0.21 -1.049,0.21 -0.393,0 -0.753,-0.072 -1.081,-0.217 C -3.374,6.971 -3.656,6.772 -3.892,6.519 -4.128,6.266 -4.311,5.967 -4.442,5.622 -4.573,5.276 -4.639,4.899 -4.639,4.488 c 0,-0.419 0.066,-0.804 0.197,-1.153 0.131,-0.35 0.312,-0.649 0.544,-0.898 0.231,-0.249 0.509,-0.443 0.832,-0.583 0.323,-0.14 0.677,-0.209 1.061,-0.209 0.445,0 0.834,0.087 1.166,0.262 0.332,0.174 0.599,0.401 0.8,0.681 L 1.52,1.12 C 1.109,0.649 0.603,0.275 0,0"
             style="fill:#004e38;fill-opacity:1;fill-rule:nonzero;stroke:none"
             id="path6397" />
        </g>
        <g
           id="g6399"
           transform="translate(569.0539,753.0762)">
          <path
             d="M 0,0 V 9.278 H 6.237 V 7.391 H 2.162 V 5.635 H 6.015 V 3.839 H 2.162 V 1.913 H 6.473 V 0 Z"
             style="fill:#004e38;fill-opacity:1;fill-rule:nonzero;stroke:none"
             id="path6401" />
        </g>
      </g>
    </g>
  </g>
</svg>
